<svg width="51" height="51" viewBox="0 0 51 51" fill="none" xmlns="http://www.w3.org/2000/svg">
<path d="M33.3848 10.0114H29.3008C28.2768 9.95354 27.2523 10.116 26.2964 10.4877C25.3405 10.8595 24.4755 11.432 23.7597 12.1666C23.0439 12.9011 22.4939 13.7807 22.147 14.7459C21.8001 15.7111 21.6642 16.7394 21.7485 17.7616V21.3416H17.6426C17.4722 21.3416 17.3087 21.4093 17.1882 21.5298C17.0677 21.6503 17 21.8138 17 21.9842V27.1623C17 27.3327 17.0677 27.4961 17.1882 27.6167C17.3087 27.7372 17.4722 27.8049 17.6426 27.8049H21.7485V40.8701C21.7485 41.0405 21.8162 41.204 21.9367 41.3245C22.0572 41.445 22.2207 41.5127 22.3911 41.5127H27.7484C27.9189 41.5127 28.0823 41.445 28.2028 41.3245C28.3233 41.204 28.391 41.0405 28.391 40.8701V27.7981H33.192C33.2764 27.7981 33.3599 27.7815 33.4379 27.7492C33.5159 27.7169 33.5867 27.6696 33.6464 27.6099C33.706 27.5502 33.7534 27.4794 33.7857 27.4014C33.818 27.3235 33.8346 27.2399 33.8346 27.1555V21.9774C33.8346 21.807 33.7669 21.6436 33.6464 21.5231C33.5259 21.4025 33.3624 21.3348 33.192 21.3348H28.3893V18.2977C28.3893 16.8417 28.736 16.0993 30.6334 16.0993H33.3848C33.5552 16.0993 33.7186 16.0316 33.8392 15.9111C33.9597 15.7906 34.0274 15.6271 34.0274 15.4567V10.6608C34.0283 10.5758 34.0123 10.4916 33.9804 10.4128C33.9485 10.3341 33.9013 10.2624 33.8416 10.202C33.7818 10.1416 33.7107 10.0937 33.6323 10.061C33.5538 10.0283 33.4697 10.0114 33.3848 10.0114V10.0114Z" fill="#FCFDFE"/>
<rect x="1" y="1" width="49" height="49" rx="9" fill="white" fill-opacity="0.47" stroke="white" stroke-width="2"/>
</svg>
