<svg width="51" height="51" viewBox="0 0 51 51" fill="none" xmlns="http://www.w3.org/2000/svg">
<rect x="1" y="1" width="49" height="49" rx="9" fill="white" fill-opacity="0.47" stroke="white" stroke-width="2"/>
<path d="M41.2381 19.4527C41.213 18.1687 40.9696 16.8984 40.5183 15.6962C40.119 14.6667 39.5093 13.7319 38.7281 12.9515C37.9468 12.1712 37.0113 11.5625 35.9814 11.1645C34.779 10.7137 33.5088 10.4703 32.2249 10.4447C30.5672 10.3668 30.0412 10.3478 25.8383 10.3478C21.6354 10.3478 21.1059 10.3668 19.4535 10.4378C18.1695 10.4628 16.8992 10.7063 15.697 11.1576C14.6621 11.5449 13.7247 12.1544 12.951 12.9432C12.1644 13.7186 11.5557 14.6555 11.167 15.6892C10.7133 16.8911 10.4669 18.1614 10.4386 19.4457C10.3676 21.1034 10.3503 21.6294 10.3503 25.834C10.3503 30.0387 10.3676 30.5647 10.4386 32.2172C10.4641 33.5012 10.7081 34.7715 11.1601 35.9737C11.5587 37.0027 12.1676 37.9373 12.9479 38.7176C13.7282 39.4979 14.6627 40.1068 15.6918 40.5053C16.8942 40.9561 18.1644 41.1995 19.4483 41.2251C21.099 41.2978 21.6267 41.3151 25.8297 41.3151C30.0326 41.3151 30.5603 41.2978 32.211 41.2251C33.495 41.2002 34.7653 40.9568 35.9675 40.5053C36.9969 40.1073 37.9318 39.4986 38.7121 38.7183C39.4925 37.9379 40.1012 37.003 40.4992 35.9737C40.9499 34.7712 41.1933 33.501 41.219 32.2172C41.2917 30.5664 41.309 30.0387 41.309 25.8358C41.309 21.6329 41.309 21.1051 41.2311 19.4544L41.2381 19.4527ZM38.4488 32.096C38.4387 33.0777 38.2584 34.0501 37.9159 34.9701C37.6578 35.6384 37.2627 36.2453 36.7562 36.7519C36.2496 37.2585 35.6426 37.6535 34.9743 37.9116C34.0542 38.2535 33.0819 38.4338 32.1003 38.4445C30.4669 38.5172 29.9772 38.5345 25.8452 38.5345C21.7133 38.5345 21.2167 38.5172 19.5902 38.4445C18.6085 38.4346 17.6361 38.2543 16.7161 37.9116C16.0437 37.6644 15.4357 37.2687 14.9374 36.754C14.4246 36.2544 14.0297 35.6468 13.7815 34.9753C13.4396 34.0551 13.2593 33.0828 13.2486 32.1012C13.1759 30.4678 13.1586 29.9781 13.1586 25.8462C13.1586 21.7142 13.1759 21.2176 13.2486 19.5911C13.2585 18.6094 13.4388 17.637 13.7815 16.717C14.0266 16.0445 14.422 15.4368 14.9374 14.94C15.4378 14.4267 16.0467 14.0317 16.7196 13.7842C17.6398 13.4424 18.6121 13.2621 19.5936 13.2512C21.227 13.1786 21.7167 13.1613 25.8487 13.1613C29.9807 13.1613 30.4773 13.1803 32.1038 13.2512C33.0854 13.2613 34.0578 13.4416 34.9778 13.7842C35.6501 14.0308 36.2581 14.4259 36.7566 14.94C37.2693 15.4396 37.6642 16.0473 37.9124 16.7188C38.2543 17.6389 38.4346 18.6113 38.4453 19.5928C38.518 21.2262 38.5353 21.7159 38.5353 25.8479C38.5353 29.9799 38.5163 30.4644 38.4453 32.0978L38.4488 32.096Z" fill="#FCFDFE"/>
<path d="M25.8366 17.8798C24.2624 17.8798 22.7235 18.3466 21.4146 19.2212C20.1057 20.0958 19.0855 21.3388 18.4831 22.7932C17.8806 24.2476 17.723 25.848 18.0301 27.392C18.3372 28.936 19.0953 30.3542 20.2084 31.4673C21.3216 32.5805 22.7398 33.3386 24.2838 33.6457C25.8278 33.9528 27.4281 33.7951 28.8825 33.1927C30.3369 32.5903 31.58 31.5701 32.4546 30.2612C33.3292 28.9523 33.796 27.4134 33.796 25.8392C33.796 23.7282 32.9575 21.7037 31.4648 20.211C29.9721 18.7183 27.9476 17.8798 25.8366 17.8798ZM25.8366 30.9955C24.8161 30.9955 23.8185 30.6929 22.97 30.1259C22.1215 29.559 21.4601 28.7531 21.0696 27.8103C20.679 26.8675 20.5769 25.83 20.776 24.8291C20.975 23.8282 21.4665 22.9088 22.1881 22.1872C22.9097 21.4656 23.8291 20.9742 24.83 20.7751C25.8309 20.576 26.8683 20.6782 27.8111 21.0687C28.754 21.4592 29.5598 22.1206 30.1268 22.9691C30.6938 23.8176 30.9964 24.8152 30.9964 25.8357C30.9959 27.2041 30.4522 28.5162 29.4846 29.4837C28.5171 30.4513 27.2049 30.9951 25.8366 30.9955Z" fill="#FCFDFE"/>
<path d="M35.9692 17.5649C35.9692 17.9321 35.8603 18.291 35.6563 18.5964C35.4523 18.9017 35.1624 19.1396 34.8231 19.2802C34.4839 19.4207 34.1105 19.4575 33.7504 19.3858C33.3902 19.3142 33.0594 19.1374 32.7998 18.8777C32.5401 18.6181 32.3633 18.2872 32.2917 17.9271C32.22 17.5669 32.2568 17.1936 32.3973 16.8544C32.5378 16.5151 32.7758 16.2252 33.0811 16.0212C33.3865 15.8172 33.7454 15.7083 34.1126 15.7083C34.605 15.7083 35.0773 15.9039 35.4255 16.252C35.7736 16.6002 35.9692 17.0725 35.9692 17.5649Z" fill="#FCFDFE"/>
</svg>
