<svg width="28" height="29" viewBox="0 0 28 29" fill="none" xmlns="http://www.w3.org/2000/svg">
<path fill-rule="evenodd" clip-rule="evenodd" d="M3.75403 1.87703L3.75403 26.2791C3.75403 27.3157 2.71742 28.1561 1.877 28.1561C0.840396 28.1561 -2.27788e-05 27.3157 -2.2602e-05 26.2791L-1.844e-05 1.87703C-1.82632e-05 0.840417 1.03659 -4.63486e-07 1.87701 -3.20144e-07C2.91361 -1.43341e-07 3.75403 0.840418 3.75403 1.87703Z" fill="white"/>
<path fill-rule="evenodd" clip-rule="evenodd" d="M16.3661 8.88795C17.1454 8.10646 17.1448 6.84143 16.3663 6.06075C15.5873 5.27986 14.3252 5.28006 13.5465 6.06075L6.48982 13.135C5.97013 13.6559 5.97054 14.5008 6.48982 15.0215L13.5465 22.0958C14.3258 22.8771 15.5875 22.8765 16.3663 22.0958C17.145 21.3149 17.1448 20.0495 16.3661 19.2686L13.1637 16.059L26.0071 16.059C27.1069 16.059 28 15.164 28 14.0598C28 12.9556 27.1077 12.0608 26.0071 12.0608L13.2004 12.0608L16.3661 8.88795Z" fill="white"/>
</svg>
