<svg width="205" height="33" viewBox="0 0 205 33" fill="none" xmlns="http://www.w3.org/2000/svg">
<path d="M24.6967 2.08461L20.0928 3.36346C22.614 11.2923 25.537 17.3942 29.5563 21.8154L32.5159 17.5769C26.9255 12.4615 25.4274 6.65192 24.6967 2.08461ZM0.617805 3.91154L0.946651 8.66154C1.78704 8.47885 2.37165 8.40577 3.13896 8.29615C4.19857 8.18654 6.53703 7.93077 7.96204 7.78461C4.52742 12.0962 2.0428 16.5538 2.0428 22.5096C2.0428 29.1231 7.08511 32.3385 12.9313 32.3385C25.1351 32.3385 26.8524 21.1942 24.8428 11.3654L20.5313 4.35C23.7832 18.3077 21.3351 27.4423 13.0409 27.4423C9.53319 27.4423 6.75627 25.725 6.75627 21.45C6.75627 14.4712 11.6524 8.80769 14.1736 6.94423C14.7217 6.61538 15.489 6.32308 16.0005 6.14038L14.6486 2.08461C12.237 2.925 6.13511 3.72885 2.66396 3.91154C2.00627 3.94808 1.23896 3.94808 0.617805 3.91154ZM54.8043 4.09423C55.2428 5.3 55.7543 6.98077 56.5582 8.99038C57.6909 12.0231 59.2986 15.0923 60.614 17.2481C59.4813 17.1385 57.0697 16.9558 55.2793 16.7731L54.914 20.6462C57.9832 20.9019 62.6236 21.3769 64.6697 21.7788L66.8986 18.5269C66.2409 17.7596 65.5832 16.9923 64.962 16.0788C63.7563 14.3981 62.039 11.2558 60.9063 8.18654C60.0293 5.84808 59.1524 2.96154 58.6043 0.148077L53.6716 0.732692C54.1101 1.93846 54.5486 3.25385 54.8043 4.09423ZM41.5043 5.81154L41.5774 10.4519C49.0678 11.0731 54.8409 10.9269 59.7005 10.3423C62.6236 10.0135 65.7659 9.46538 68.1774 8.77115L67.6293 4.20385C64.7428 5.08077 61.5274 5.70192 58.2755 6.10385C53.8909 6.57885 48.337 6.61538 41.5043 5.81154ZM48.8486 18.2346L44.2813 17.175C43.039 19.6596 42.3447 21.7423 42.3447 23.9712C42.3447 29.2692 47.0216 32.1558 54.512 32.1558C58.9332 32.1558 62.2216 31.6808 64.3043 31.3154L64.5601 26.675C62.0024 27.1865 58.787 27.5885 54.8043 27.5885C49.7986 27.5519 47.0582 26.2731 47.0582 23.1673C47.0582 21.5962 47.6428 19.9885 48.8486 18.2346ZM88.7851 1.025L82.9024 0.988462C83.1947 2.41346 83.3409 4.16731 83.3409 5.92115C83.3409 9.06346 83.012 18.6365 83.012 23.5327C83.012 29.7808 86.8486 32.4115 92.8409 32.4115C101.172 32.4115 106.36 27.5519 108.735 24.0442L105.41 19.9885C102.743 23.9712 98.9428 27.4423 92.914 27.4423C90.064 27.4423 87.8716 26.2365 87.8716 22.5462C87.8716 18.0154 88.1274 9.86731 88.3101 5.92115C88.3832 4.45961 88.5659 2.55961 88.7851 1.025ZM130.695 9.79423L133.654 12.4615C135.116 11.4385 137.966 9.17308 138.916 8.36923L137.82 5.51923C135.335 3.94808 131.425 2.26731 128.393 1.17115L125.689 4.53269C128.466 5.51923 131.425 7.01731 132.997 8.11346C132.485 8.51539 131.572 9.17308 130.695 9.79423ZM124.483 26.6385L125.177 31.425C126.968 31.7904 129.05 32.0096 131.097 32.0096C134.86 32.0096 138.368 30.5481 138.368 25.6519C138.368 22.2538 136.212 19.0019 132.266 15.0558C131.352 14.1058 130.402 13.1923 129.306 12.0962L125.762 15.0923C126.931 15.9692 128.21 17.1019 129.124 17.9788C130.731 19.5865 133.289 22.9115 133.289 25.1404C133.289 26.8212 131.974 27.4788 130.11 27.4788C128.356 27.4788 126.493 27.1865 124.483 26.6385ZM144.725 29.4519L149.183 27.0769C148.05 23.6423 145.2 18.0885 142.935 15.275L138.989 17.3942C141.437 20.4635 143.849 25.7981 144.725 29.4519ZM126.712 22.5096L123.935 18.9288C121.779 21.3038 117.797 24.3731 114.654 26.0904L117.431 30.0365C121.304 27.625 124.666 24.6654 126.712 22.5096ZM142.643 5.15385L139.756 6.35962C140.743 7.78461 141.875 9.94038 142.606 11.4385L145.529 10.1962C144.872 8.84423 143.556 6.50577 142.643 5.15385ZM146.954 3.50962L144.068 4.71538C145.091 6.06731 146.26 8.22308 147.027 9.75769L149.914 8.47885C149.293 7.2 147.941 4.89808 146.954 3.50962ZM166.247 0.659616L161.241 0.476923C161.204 1.46346 161.095 2.925 160.949 4.27692C160.4 8.07692 159.925 12.5712 159.925 16.0058C159.925 18.4538 160.145 20.6827 160.364 22.1077L164.858 21.7788C164.675 20.0981 164.639 18.9288 164.712 17.9058C164.858 13.1192 168.658 6.61538 172.97 6.61538C176.002 6.61538 177.902 9.75769 177.902 15.3846C177.902 24.2269 172.202 26.9308 164.054 28.1731L166.831 32.4115C176.514 30.6212 182.835 25.725 182.835 15.3846C182.835 7.34615 178.889 2.34038 173.81 2.34038C169.718 2.34038 166.502 5.44615 164.749 8.25962C164.968 6.21346 165.735 2.45 166.247 0.659616ZM204.722 2.41346L203.772 19.7327H196.829L195.879 2.41346H204.722ZM200.3 30.2923C198.888 30.2923 197.755 29.9147 196.902 29.1596C196.05 28.4045 195.624 27.4545 195.624 26.3096C195.624 25.1404 196.05 24.1782 196.902 23.4231C197.755 22.6436 198.888 22.2538 200.3 22.2538C201.689 22.2538 202.809 22.6436 203.662 23.4231C204.515 24.1782 204.941 25.1404 204.941 26.3096C204.941 27.4545 204.515 28.4045 203.662 29.1596C202.809 29.9147 201.689 30.2923 200.3 30.2923Z" fill="white"/>
</svg>
