<svg width="166" height="33" viewBox="0 0 166 33" fill="none" xmlns="http://www.w3.org/2000/svg">
<path d="M17.7904 0.732692H12.3096C12.5288 1.60962 12.6385 3.18077 12.675 5.00769C12.7115 6.57885 12.7481 8.73462 12.7481 10.9269C12.7481 14.3981 13.1865 21.7788 13.1865 24.3365C13.1865 26.7481 12.3096 27.8077 9.97115 27.8077C7.41346 27.8077 5.58654 27.1135 5.58654 25.3596C5.58654 23.7519 7.30385 22.8019 10.1538 22.8019C16.7673 22.8019 22.5769 26.7481 26.1942 30.4019L29.0077 26.0173C25.2808 22.5827 18.4481 18.7462 10.8115 18.7462C4.125 18.7462 0.836538 21.7423 0.836538 25.5788C0.836538 30.5115 5.11154 32.2288 10.3731 32.2288C16.475 32.2288 18.1558 29.1596 18.1558 25.9077C18.1558 22.8385 17.4615 14.9827 17.4615 10.9269C17.4615 8.84423 17.425 6.76154 17.4615 5.00769C17.5346 3.58269 17.6442 1.79231 17.7904 0.732692ZM15.0135 7.71154V12.0231C17.2788 12.0231 23.7096 11.8404 27.8385 11.475L27.6558 7.12692C23.5635 7.56538 17.1692 7.71154 15.0135 7.71154ZM60.9058 18.0519C60.9058 23.7885 55.0962 26.7481 46.0346 27.7712L48.6288 32.3385C58.7865 30.9135 66.0577 26.0904 66.0577 18.2346C66.0577 12.5346 62.0019 9.24615 56.2288 9.24615C51.9173 9.24615 47.825 10.3058 45.1577 10.8904C43.9519 11.1462 42.4173 11.4385 41.175 11.5115L42.5635 16.7731C43.5865 16.3346 45.0481 15.7865 46.1077 15.4577C47.9346 14.9096 51.5885 13.7038 55.6077 13.7038C59.0423 13.7038 60.9058 15.6404 60.9058 18.0519ZM46.5462 0.513461L45.8519 4.89808C50.0538 5.62885 57.9827 6.35962 62.2577 6.65192L62.9519 2.15769C59.1154 2.15769 50.8212 1.42692 46.5462 0.513461ZM82.7558 3.47308V8.29615C85.7519 8.51539 88.9308 8.69808 92.7308 8.69808C96.2385 8.69808 100.733 8.47885 103.29 8.25962V3.4C100.513 3.69231 96.3115 3.91154 92.7308 3.91154C88.8577 3.91154 85.4596 3.76538 82.7558 3.47308ZM85.825 18.9288L81.0385 18.4904C80.7827 19.8788 80.3077 21.6692 80.3077 23.7519C80.3077 28.7942 84.5461 31.5712 92.8769 31.5712C97.9923 31.5712 102.377 31.0962 105.592 30.3654L105.556 25.2135C102.304 26.1269 97.6269 26.675 92.7308 26.675C87.4692 26.675 85.2038 24.9577 85.2038 22.6558C85.2038 21.4135 85.4962 20.2442 85.825 18.9288ZM122.692 2.04808L122.912 6.725C124.044 6.61538 125.287 6.46923 126.163 6.39615C127.662 6.25 132.192 6.03077 133.69 5.92115C131.425 7.96731 126.638 12.0962 123.387 14.2519C121.487 14.4712 118.929 14.7635 116.992 14.9827L117.394 19.4038C121.085 18.7462 125.14 18.1981 128.502 17.9423C127.15 19.1846 125.835 21.45 125.835 23.7154C125.835 29.7808 131.279 32.6308 140.669 32.2288L141.619 27.4058C140.267 27.5154 138.112 27.5519 136.065 27.3327C132.777 26.9673 130.512 25.8346 130.512 22.9481C130.512 19.9519 133.325 17.5769 136.65 17.1019C138.879 16.8096 142.569 16.8096 146.077 17.0288L146.04 12.7173C141.619 12.7173 135.554 13.0827 130.658 13.5942C133.142 11.6212 136.723 8.625 139.354 6.54231C140.085 5.92115 141.473 5.00769 142.24 4.53269L139.354 1.17115C138.842 1.31731 138.002 1.5 136.796 1.60962C134.567 1.86538 127.735 2.19423 126.163 2.19423C124.921 2.19423 123.862 2.15769 122.692 2.04808ZM165.406 2.41346L164.456 19.7327H157.513L156.563 2.41346H165.406ZM160.985 30.2923C159.572 30.2923 158.439 29.9147 157.587 29.1596C156.734 28.4045 156.308 27.4545 156.308 26.3096C156.308 25.1404 156.734 24.1782 157.587 23.4231C158.439 22.6436 159.572 22.2538 160.985 22.2538C162.373 22.2538 163.494 22.6436 164.346 23.4231C165.199 24.1782 165.625 25.1404 165.625 26.3096C165.625 27.4545 165.199 28.4045 164.346 29.1596C163.494 29.9147 162.373 30.2923 160.985 30.2923Z" fill="white"/>
</svg>
