<svg width="51" height="51" viewBox="0 0 51 51" fill="none" xmlns="http://www.w3.org/2000/svg">
<rect x="1" y="1" width="49" height="49" rx="9" fill="white" fill-opacity="0.47" stroke="white" stroke-width="2"/>
<path d="M41.6845 16.2876C40.5235 16.7954 39.2929 17.1259 38.0337 17.2681C39.3645 16.4926 40.3563 15.2466 40.8135 13.7758C39.571 14.5162 38.2089 15.0344 36.7885 15.3071C36.2058 14.6873 35.5048 14.1909 34.7268 13.847C33.9489 13.5031 33.1098 13.3189 32.2593 13.3051C31.4089 13.2914 30.5643 13.4485 29.7756 13.7671C28.987 14.0857 28.2703 14.5594 27.668 15.16C27.0688 15.7414 26.5952 16.4394 26.2762 17.2109C25.9571 17.9824 25.7996 18.8111 25.8132 19.6459C25.8171 20.1345 25.8719 20.6214 25.9766 21.0987C23.4326 20.9782 20.9446 20.3093 18.6832 19.1376C16.4511 17.9991 14.4818 16.4066 12.9014 14.4622C12.3528 15.404 12.0557 16.4711 12.0385 17.5609C12.0213 18.6507 12.2847 19.7266 12.8034 20.6852C13.2962 21.5946 14.0043 22.3694 14.8657 22.942C13.8595 22.9067 12.8766 22.6304 11.9993 22.1364V22.2148C11.9791 23.6896 12.4915 25.1222 13.4423 26.2496C14.3628 27.3834 15.6519 28.1583 17.0849 28.4395C16.5403 28.5826 15.9795 28.6551 15.4164 28.6552C15.0153 28.6522 14.6149 28.6195 14.2186 28.5571C14.626 29.8162 15.4162 30.9166 16.4791 31.705C17.5419 32.4933 18.8244 32.9302 20.1474 32.9548C17.9129 34.737 15.132 35.694 12.2739 35.6643C11.763 35.6676 11.2523 35.642 10.7443 35.5874C13.6408 37.4711 17.0274 38.4611 20.4824 38.4342C22.6422 38.4497 24.7881 38.0875 26.8231 37.3638C28.6718 36.7237 30.3884 35.7525 31.8891 34.4974C33.2876 33.3011 34.5067 31.9098 35.5089 30.3662C36.4995 28.8599 37.2637 27.2163 37.7771 25.4881C38.2688 23.8358 38.5209 22.1215 38.5256 20.3976C38.5256 20.0315 38.5191 19.7592 38.506 19.5805C39.7481 18.6751 40.8235 17.5609 41.6845 16.2876Z" fill="#FCFDFE"/>
</svg>
